<?xml version="1.0" standalone="no"?>
<!DOCTYPE svg PUBLIC "-//W3C//DTD SVG 20010904//EN"
 "http://www.w3.org/TR/2001/REC-SVG-20010904/DTD/svg10.dtd">
<svg version="1.0" xmlns="http://www.w3.org/2000/svg"
 width="512.000000pt" height="512.000000pt" viewBox="0 0 512.000000 512.000000"
 preserveAspectRatio="xMidYMid meet">
<metadata>
Created by potrace 1.11, written by Peter Selinger 2001-2013
</metadata>
<g transform="translate(0.000000,512.000000) scale(0.100000,-0.100000)"
fill="#000000" stroke="none">
<path d="M2496 5113 c-31 -8 -88 -48 -122 -84 -26 -28 -87 -127 -219 -351 -30
-50 -128 -216 -138 -233 -31 -51 -98 -164 -262 -440 -97 -165 -195 -328 -216
-363 -22 -35 -39 -67 -39 -73 0 -5 -4 -9 -10 -9 -5 0 -10 -5 -10 -10 0 -6 -22
-47 -50 -91 -27 -44 -50 -82 -50 -84 0 -2 -27 -49 -61 -104 l-60 -101 -292
197 c-161 108 -388 261 -504 340 -231 155 -247 162 -311 123 -18 -11 -37 -32
-42 -46 -6 -16 -10 -708 -10 -1905 l0 -1879 1228 2 1227 3 42 27 c106 69 146
205 95 320 -26 59 -48 84 -102 116 l-45 27 -900 2 c-495 2 -934 3 -976 3 l-76
0 1 283 1 282 65 110 c36 60 70 117 75 127 6 9 23 38 39 65 16 26 101 170 189
318 88 149 237 399 332 557 l171 287 144 -98 c80 -53 324 -217 543 -365 232
-155 404 -265 413 -262 7 3 190 124 405 268 587 395 652 438 654 436 0 -2 12
-21 26 -43 34 -53 525 -843 718 -1155 86 -139 151 -255 152 -270 3 -139 0
-533 -4 -537 -3 -3 -234 -5 -513 -5 -493 1 -510 0 -556 -20 -163 -70 -193
-305 -55 -423 22 -19 57 -40 76 -45 22 -6 324 -10 793 -10 l757 0 -2 1888 c-2
2061 2 1910 -60 1947 -41 24 -96 15 -154 -27 -27 -19 -205 -140 -398 -269
-192 -129 -352 -236 -355 -239 -10 -11 -193 -130 -195 -128 -1 2 -55 93 -120
203 -65 110 -150 254 -190 320 -39 66 -138 233 -220 370 -139 235 -353 595
-487 820 -79 132 -116 175 -174 206 -48 25 -121 35 -168 22z m129 -877 c20
-27 139 -223 197 -326 11 -19 49 -83 84 -141 35 -59 64 -112 64 -118 0 -6 5
-11 10 -11 6 0 10 -7 10 -15 0 -8 3 -15 8 -15 4 0 13 -13 20 -29 7 -16 48 -88
91 -159 43 -72 80 -134 82 -139 6 -12 176 -299 210 -353 15 -25 25 -48 21 -51
-4 -3 -140 -95 -302 -204 -162 -109 -350 -236 -418 -282 -67 -46 -129 -86
-136 -89 -7 -3 -89 46 -182 109 -93 63 -286 193 -429 289 -204 138 -259 180
-257 194 2 11 8 21 13 22 5 2 9 7 9 12 0 7 215 377 250 430 5 8 19 33 31 55
12 22 35 59 50 82 16 23 29 44 29 46 0 3 34 63 76 133 42 71 86 147 99 169 12
22 50 87 85 145 34 58 78 132 97 165 60 101 91 126 140 117 13 -2 35 -19 48
-36z m-1805 -1273 l220 -146 -19 -31 c-10 -17 -69 -116 -131 -221 -62 -104
-146 -245 -186 -313 -41 -68 -74 -127 -74 -133 0 -5 -4 -9 -8 -9 -5 0 -13 -10
-19 -22 -6 -14 -9 153 -9 500 0 287 1 522 3 522 2 0 102 -66 223 -147z m3702
-368 c0 -279 -2 -508 -4 -510 -3 -4 -426 700 -436 725 -3 9 429 302 436 295 2
-2 4 -232 4 -510z"/>
</g>
</svg>
